<svg width="75" height="40" viewBox="0 0 75 40" fill="none" xmlns="http://www.w3.org/2000/svg">
<g clip-path="url(#clip0_8_237)">
<path d="M10.9962 21.6577V32.778L1.35327 27.2195L10.9962 21.6577Z" fill="white" fill-opacity="0.5"/>
<path d="M50.0373 28.0073L44.5009 37.6096L38.9492 28.0073H50.0373Z" fill="white" fill-opacity="0.5"/>
<path d="M24.4526 27.9751H35.5797L30.0229 37.6096L24.4526 27.9751Z" fill="white" fill-opacity="0.5"/>
<path d="M74.5074 32.7559L64.9102 27.2212L74.5074 21.6848V32.7559Z" fill="white" fill-opacity="0.5"/>
<path d="M73.667 19.9907L64.0325 25.5475V14.4391L73.667 19.9907Z" fill="white" fill-opacity="0.5"/>
<path d="M73.6669 5.54487L64.0476 11.0914V0L73.6669 5.54487Z" fill="white" fill-opacity="0.5"/>
<path d="M10.117 5.54488L0.523193 11.0762V0.0152588L10.117 5.54488Z" fill="white" fill-opacity="0.5"/>
<path d="M0.523193 14.4594L10.1103 19.9907L0.523193 25.5237V14.4594Z" fill="white" fill-opacity="0.5"/>
<path d="M50.0406 25.9743H38.9187L44.472 16.3466L50.0406 25.9743Z" fill="white" fill-opacity="0.5"/>
<path d="M64.0222 28.8984L73.6415 34.4518L64.0222 40V28.8984Z" fill="white" fill-opacity="0.5"/>
<path d="M37.2551 28.8832L42.7949 38.4719H31.7102C33.5517 35.2853 35.3475 32.1732 37.2551 28.8832Z" fill="white" fill-opacity="0.5"/>
<path d="M35.5933 25.9625H24.49L30.0383 16.3433L35.5933 25.9625Z" fill="white" fill-opacity="0.5"/>
<path d="M0.492676 28.9153L10.0865 34.45L0.492676 39.9813V28.9153Z" fill="white" fill-opacity="0.5"/>
<path d="M17.2339 15.4606H28.3372L22.794 25.073L17.2339 15.4606Z" fill="white" fill-opacity="0.5"/>
<path d="M46.168 15.4539H57.278L51.7281 25.0731L46.168 15.4539Z" fill="white" fill-opacity="0.5"/>
</g>
<defs>
<clipPath id="clip0_8_237">
<rect width="74.0147" height="40" fill="white" transform="translate(0.492676)"/>
</clipPath>
</defs>
</svg>
