<svg width="28" height="29" viewBox="0 0 28 29" fill="none" xmlns="http://www.w3.org/2000/svg">
<g clip-path="url(#clip0_4_159)">
<path d="M27.4225 6.66553H11.0948C10.5632 6.66553 10.2605 7.07657 10.4182 7.58442L13.0012 15.1508C13.1284 15.5591 13.5787 15.8899 14.0064 15.8899H24.7111C25.1388 15.8899 25.5885 15.5591 25.7147 15.1508L27.9657 7.40573C28.0941 6.9969 27.8512 6.66553 27.4225 6.66553Z" fill="white"/>
<path d="M12.5714 27.0489C13.9203 27.0489 15.0138 25.9553 15.0138 24.6064C15.0138 23.2575 13.9203 22.1639 12.5714 22.1639C11.2224 22.1639 10.1289 23.2575 10.1289 24.6064C10.1289 25.9553 11.2224 27.0489 12.5714 27.0489Z" fill="white"/>
<path d="M22.9066 27.0793C24.2555 27.0793 25.349 25.9858 25.349 24.6369C25.349 23.2879 24.2555 22.1944 22.9066 22.1944C21.5576 22.1944 20.4641 23.2879 20.4641 24.6369C20.4641 25.9858 21.5576 27.0793 22.9066 27.0793Z" fill="white"/>
<path d="M25.8391 18.3756H11.5545L5.83589 1.92065H1.38304C0.61905 1.92065 0 2.5397 0 3.3037C0 4.06769 0.61905 4.68674 1.38304 4.68674H3.86865L9.58726 21.1416H25.8391C26.6031 21.1416 27.2222 20.5226 27.2222 19.7586C27.2222 18.9946 26.6031 18.3756 25.8391 18.3756Z" fill="white"/>
</g>
<defs>
<clipPath id="clip0_4_159">
<rect width="28" height="28" fill="white" transform="translate(0 0.5)"/>
</clipPath>
</defs>
</svg>
