<?xml version="1.0" encoding="utf-8"?>
<!-- Generator: Adobe Illustrator 21.0.2, SVG Export Plug-In . SVG Version: 6.00 Build 0)  -->
<!DOCTYPE svg PUBLIC "-//W3C//DTD SVG 1.1//EN" "http://www.w3.org/Graphics/SVG/1.1/DTD/svg11.dtd">
<svg version="1.1" id="Layer_1" xmlns="http://www.w3.org/2000/svg" xmlns:xlink="http://www.w3.org/1999/xlink" x="0px" y="0px"
	 viewBox="0 0 600 600" style="enable-background:new 0 0 600 600;" xml:space="preserve">
<style type="text/css">
	.st0{fill:#FFFFFF;}
</style>
<path class="st0" d="M397.4,176.2h-48.7c-12.2,0-22.8,12.2-22.8,26v52h71.5v44.3h-71.5v177.3h-53.3V298.5h-62.4v-44.3h62.4V193
	c0-35.1,27.4-64.2,60.9-64.2h63.9V176.2z M482.6,2H117.4C54.9,2,3.2,54,3.2,116.6v366.8C3.2,546,54.9,598,117.4,598h365.3
	c62.4,0,114.2-52,114.2-114.6V116.6C596.8,54,546.6,2,482.6,2"/>
</svg>
