<?xml version="1.0" encoding="utf-8"?>
<!-- Generator: Adobe Illustrator 21.0.2, SVG Export Plug-In . SVG Version: 6.00 Build 0)  -->
<!DOCTYPE svg PUBLIC "-//W3C//DTD SVG 1.1//EN" "http://www.w3.org/Graphics/SVG/1.1/DTD/svg11.dtd">
<svg version="1.1" id="Layer_1" xmlns="http://www.w3.org/2000/svg" xmlns:xlink="http://www.w3.org/1999/xlink" x="0px" y="0px"
	 viewBox="0 0 600 600" style="enable-background:new 0 0 600 600;" xml:space="preserve">
<style type="text/css">
	.st0{fill:#FFFFFF;}
</style>
<path class="st0" d="M247.5,262.9c14.5,14.5,31.9,21.7,52.5,21.7c20.5,0,38-7.2,52.5-21.7c14.5-14.5,21.7-31.9,21.7-52.5
	c0-20.5-7.2-38-21.7-52.5c-14.5-14.5-31.9-21.7-52.5-21.7c-20.5,0-38,7.2-52.5,21.7c-14.5,14.5-21.7,31.9-21.7,52.5
	C225.9,231,233.1,248.5,247.5,262.9 M152.4,62.8C193,22.3,242.2,2,300,2c57.8,0,107,20.3,147.6,60.8c40.6,40.6,60.8,89.8,60.8,147.6
	c0,28.9-7.2,62-21.7,99.3c-14.5,37.3-32,72.3-52.5,104.9c-20.5,32.7-40.8,63.2-60.8,91.6c-20.1,28.5-37.1,51.1-51.1,67.9L300,598
	c-5.6-6.5-13.1-15.1-22.4-25.9c-9.3-10.7-26.1-32.2-50.4-64.4c-24.3-32.2-45.5-63.4-63.7-93.7c-18.2-30.3-34.8-64.6-49.7-102.8
	C99,273,91.5,239.4,91.5,210.5C91.5,152.6,111.8,103.4,152.4,62.8"/>
</svg>
