<?xml version="1.0" encoding="utf-8"?>
<!-- Generator: Adobe Illustrator 21.0.2, SVG Export Plug-In . SVG Version: 6.00 Build 0)  -->
<!DOCTYPE svg PUBLIC "-//W3C//DTD SVG 1.1//EN" "http://www.w3.org/Graphics/SVG/1.1/DTD/svg11.dtd">
<svg version="1.1" id="Layer_1" xmlns="http://www.w3.org/2000/svg" xmlns:xlink="http://www.w3.org/1999/xlink" x="0px" y="0px"
	 viewBox="0 0 600 600" style="enable-background:new 0 0 600 600;" xml:space="preserve">
<style type="text/css">
	.st0{fill:#FFFFFF;}
</style>
<path class="st0" d="M533.2,161.8c0,7.3-5.9,13.2-13.2,13.2h-72.5c-7.3,0-13.2-5.9-13.2-13.2V89c0-7.3,5.9-13.2,13.2-13.2H520
	c7.3,0,13.2,5.9,13.2,13.2V161.8z M533.2,464.1c0,41.4-33.4,74.9-74.6,74.9H141.4c-41.2,0-74.6-33.5-74.6-74.9V248.3h71.6
	c-5.2,16.3-8,33.7-8,51.7c0,94,75.9,170.3,169.6,170.3c93.7,0,169.6-76.2,169.6-170.3c0-18-2.8-35.4-8-51.7h71.6V464.1z
	 M207.4,248.3c0-0.1,0.1-0.1,0.1-0.2c1.2-2.1,2.4-4.2,3.8-6.2c0.8-1.2,1.6-2.3,2.4-3.5c0.9-1.3,1.8-2.5,2.8-3.8
	c0.8-1.1,1.6-2.1,2.5-3.2c1.7-2,3.4-3.9,5.2-5.7c0.9-0.9,1.8-1.8,2.7-2.6c1.3-1.2,2.6-2.4,3.9-3.6c0.9-0.8,1.8-1.6,2.7-2.3
	c2.1-1.7,4.2-3.3,6.5-4.8c0.8-0.6,1.7-1.1,2.5-1.6c1.8-1.1,3.6-2.2,5.4-3.3c0.9-0.5,1.7-1,2.6-1.5c2.5-1.3,5.1-2.6,7.8-3.7
	c0.6-0.3,1.3-0.5,1.9-0.7c2.3-0.9,4.6-1.8,6.9-2.5c0.8-0.3,1.7-0.6,2.5-0.8c2.9-0.9,5.9-1.7,8.9-2.3c0.3-0.1,0.7-0.1,1-0.2
	c2.8-0.6,5.6-1,8.4-1.3c0.8-0.1,1.7-0.2,2.5-0.3c3.2-0.3,6.4-0.5,9.6-0.5c3.2,0,6.5,0.2,9.6,0.5c0.8,0.1,1.7,0.2,2.5,0.3
	c2.8,0.3,5.6,0.7,8.4,1.3c0.3,0.1,0.7,0.1,1,0.2c3,0.6,6,1.4,8.9,2.3c0.8,0.3,1.7,0.5,2.5,0.8c2.3,0.8,4.7,1.6,6.9,2.5
	c0.6,0.3,1.2,0.5,1.8,0.7c2.6,1.1,5.2,2.4,7.8,3.8c0.9,0.5,1.7,1,2.6,1.4c1.9,1.1,3.7,2.2,5.4,3.3c0.8,0.5,1.6,1,2.4,1.6
	c2.3,1.5,4.4,3.2,6.5,4.9c0.9,0.7,1.8,1.5,2.7,2.3c1.4,1.2,2.7,2.4,4,3.7c0.9,0.9,1.8,1.7,2.6,2.6c1.8,1.9,3.5,3.8,5.2,5.8
	c0.8,1,1.7,2,2.5,3.1c1,1.3,2,2.6,2.9,3.9c0.8,1.1,1.6,2.3,2.4,3.4c10.9,16.7,17.3,36.7,17.3,58.2c0,58.8-47.5,106.4-106,106.4
	c-58.5,0-106-47.6-106-106.4C194,281.2,198.9,263.6,207.4,248.3 M495,2H105C48.8,2,3.2,47.7,3.2,104.2v391.6
	C3.2,552.2,48.8,598,105,598H495c56.2,0,101.8-45.8,101.8-102.2V104.2C596.8,47.7,551.2,2,495,2"/>
</svg>
