<?xml version="1.0" encoding="utf-8"?>
<!-- Generator: Adobe Illustrator 21.0.2, SVG Export Plug-In . SVG Version: 6.00 Build 0)  -->
<!DOCTYPE svg PUBLIC "-//W3C//DTD SVG 1.1//EN" "http://www.w3.org/Graphics/SVG/1.1/DTD/svg11.dtd">
<svg version="1.1" id="Layer_1" xmlns="http://www.w3.org/2000/svg" xmlns:xlink="http://www.w3.org/1999/xlink" x="0px" y="0px"
	 viewBox="0 0 600 600" style="enable-background:new 0 0 600 600;" xml:space="preserve">
<style type="text/css">
	.st0{fill:#FFFFFF;}
</style>
<path class="st0" d="M539.2,181.8V122L300,270.8L60.8,122v59.8L300,329.2L539.2,181.8z M539.2,62.3c15.9,0,29.6,6,41.3,18.1
	c11.7,12,17.5,26,17.5,41.7V478c0,15.8-5.8,29.6-17.5,41.7c-11.7,12.1-25.4,18.1-41.3,18.1H60.8c-15.9,0-29.6-6-41.3-18.1
	C7.8,507.6,2,493.7,2,478V122c0-15.7,5.8-29.6,17.5-41.7c11.7-12.1,25.4-18.1,41.3-18.1H539.2z"/>
</svg>
