<svg width="220" height="220" viewBox="0 0 220 220" fill="none" xmlns="http://www.w3.org/2000/svg">
<path d="M77.1293 132.216H40.0744V126.392C40.0427 124.054 40.8029 121.773 42.2313 119.922C43.6447 118.023 45.4941 116.491 47.6235 115.457C49.4784 114.508 51.8078 113.43 54.5901 112.222C57.1999 111.143 59.5293 110.14 61.5999 109.342C63.6113 108.587 65.4464 107.427 66.9921 105.934C67.6643 105.314 68.2024 104.562 68.5734 103.726C68.9443 102.889 69.1402 101.986 69.1489 101.071C69.1489 96.3831 65.8346 94.0357 59.2058 94.0285C52.577 94.0213 49.2483 96.7066 49.2195 102.084V103.605H41.347V102.084C41.347 97.2962 42.9179 93.6115 46.0597 91.0305C49.2016 88.4494 53.5728 87.1661 59.1734 87.1805C64.7453 87.1805 69.113 88.3883 72.2764 90.804C73.8327 92.0093 75.0763 93.5713 75.9021 95.3581C76.728 97.145 77.1119 99.1043 77.0215 101.071C77.0578 103.514 76.3302 105.909 74.9401 107.919C73.5847 109.913 71.7969 111.575 69.7097 112.782C67.4885 114.057 65.2028 115.216 62.8617 116.255C60.5215 117.333 58.246 118.218 56.0352 119.037C54.1548 119.708 52.3875 120.66 50.794 121.863C50.1792 122.244 49.6633 122.765 49.2884 123.383C48.9136 124.002 48.6904 124.7 48.6372 125.422H77.0862L77.1293 132.216Z" fill="white"/>
<path d="M84.9696 131.72C84.5594 131.34 84.2384 130.874 84.0296 130.356C83.8208 129.838 83.7293 129.279 83.7618 128.722C83.7372 128.163 83.8322 127.606 84.0405 127.087C84.2488 126.568 84.5656 126.099 84.9696 125.713C85.8714 124.954 87.0285 124.569 88.2049 124.634C89.3819 124.564 90.5406 124.951 91.4402 125.713C91.8442 126.099 92.161 126.568 92.3693 127.087C92.5776 127.606 92.6726 128.163 92.648 128.722C92.6805 129.279 92.589 129.838 92.3802 130.356C92.1714 130.874 91.8503 131.34 91.4402 131.72C90.5406 132.482 89.3819 132.868 88.2049 132.798C87.0285 132.864 85.8714 132.478 84.9696 131.72Z" fill="white"/>
<path d="M99.3236 119.447V117.193H107.433V119.447C107.421 120.43 107.678 121.398 108.176 122.246C108.674 123.093 109.394 123.789 110.259 124.257C112.713 125.39 115.385 125.977 118.088 125.977C120.792 125.977 123.463 125.39 125.918 124.257C126.779 123.78 127.494 123.077 127.985 122.224C128.475 121.37 128.722 120.399 128.7 119.415C128.74 118.438 128.523 117.467 128.071 116.601C127.619 115.734 126.947 115.001 126.123 114.475C124.411 113.332 121.935 112.761 118.692 112.761H113.3V106.161H118.627C124.516 106.161 127.46 104.133 127.46 100.078C127.463 99.1847 127.233 98.3057 126.792 97.5283C126.351 96.7509 125.715 96.1021 124.947 95.6459C122.763 94.4019 120.263 93.821 117.754 93.9743C115.242 93.838 112.746 94.4497 110.582 95.7322C109.76 96.2395 109.085 96.9536 108.626 97.8033C108.166 98.653 107.937 99.6085 107.962 100.574V101.728H99.852V100.52C99.7974 98.6345 100.196 96.763 101.014 95.0629C101.832 93.3629 103.046 91.8838 104.554 90.7498C107.681 88.3341 112.081 87.1263 117.754 87.1263C123.297 87.1263 127.658 88.2838 130.835 90.5988C132.297 91.5617 133.496 92.8732 134.325 94.4151C135.153 95.957 135.584 97.6809 135.58 99.4312C135.587 100.764 135.35 102.088 134.879 103.335C134.511 104.4 133.915 105.372 133.132 106.182C132.088 107.324 130.776 108.188 129.315 108.695L128.603 108.943V109.353C129.604 109.589 130.572 109.952 131.482 110.431C132.408 110.901 133.264 111.496 134.027 112.2C134.934 113.094 135.633 114.177 136.076 115.37C136.637 116.788 136.919 118.3 136.907 119.824C136.968 121.728 136.528 123.615 135.63 125.296C134.733 126.976 133.411 128.392 131.795 129.401C128.344 131.665 123.79 132.801 118.131 132.809C112.265 132.809 107.667 131.608 104.338 129.207C102.75 128.132 101.458 126.674 100.582 124.968C99.7056 123.263 99.2728 121.364 99.3236 119.447Z" fill="white"/>
<path d="M145.588 119.706H153.827C153.827 119.706 153.827 119.975 153.978 120.374C154.211 120.935 154.497 121.473 154.83 121.981C155.257 122.657 155.776 123.271 156.372 123.804C157.193 124.502 158.147 125.026 159.176 125.346C160.436 125.777 161.76 125.988 163.091 125.971C164.703 126.037 166.307 125.71 167.765 125.018C169.222 124.327 170.49 123.292 171.46 122.003C173.563 119.065 174.622 115.508 174.469 111.898H174.253C173.792 112.555 173.236 113.14 172.603 113.634C171.932 114.232 171.181 114.733 170.371 115.122C169.246 115.678 168.053 116.084 166.822 116.33C165.325 116.665 163.795 116.831 162.261 116.826C157.127 116.826 152.954 115.424 149.708 112.61C148.158 111.289 146.916 109.645 146.07 107.793C145.224 105.941 144.795 103.926 144.813 101.89C144.83 99.8543 145.294 97.8469 146.171 96.0096C147.049 94.1724 148.319 92.5499 149.891 91.2566C153.256 88.5174 157.738 87.1442 163.339 87.137C169.68 87.137 174.494 89.0602 177.779 92.9066C181.065 96.753 182.708 102.063 182.708 108.835V110.345C182.708 116.815 181.004 122.179 177.596 126.435C174.188 130.691 169.353 132.819 163.091 132.819C160.331 132.863 157.587 132.388 155.003 131.417C152.918 130.683 151.032 129.476 149.492 127.891C146.882 125.098 145.588 122.359 145.588 119.706ZM155.93 107.897C158.117 109.332 160.675 110.096 163.291 110.096C165.906 110.096 168.464 109.332 170.651 107.897C171.581 107.236 172.334 106.356 172.842 105.334C173.35 104.313 173.597 103.181 173.563 102.041C173.595 100.9 173.35 99.7676 172.849 98.742C172.347 97.7164 171.604 96.8278 170.683 96.1527C168.516 94.643 165.913 93.8854 163.274 93.9958C160.644 93.8763 158.049 94.6351 155.898 96.1527C154.989 96.8382 154.252 97.7254 153.744 98.7444C153.236 99.7633 152.972 100.886 152.972 102.025C152.972 103.163 153.236 104.286 153.744 105.305C154.252 106.324 154.989 107.211 155.898 107.897H155.93Z" fill="white"/>
<path d="M110 0.539185C88.3508 0.539185 67.1877 6.95895 49.187 18.9867C31.1863 31.0144 17.1564 48.1098 8.87157 68.1111C0.586739 88.1125 -1.58096 110.121 2.64261 131.355C6.86618 152.588 17.2913 172.092 32.5997 187.4C47.9081 202.709 67.4121 213.134 88.6454 217.358C109.879 221.581 131.888 219.413 151.889 211.129C171.89 202.844 188.986 188.814 201.013 170.813C213.041 152.812 219.461 131.649 219.461 110C219.43 80.9788 207.887 53.1553 187.366 32.6342C166.845 12.1131 139.021 0.570585 110 0.539185V0.539185ZM31.7384 142.806C23.2373 122.177 23.2102 99.0289 31.6629 78.3804L32.2452 76.9568L31.6305 75.8784L25.9688 66.0647C34.8795 49.2193 48.5954 35.4021 65.3746 26.3676L75.3825 32.1372L76.4609 32.7411L77.8952 32.1588C98.5264 23.682 121.668 23.682 142.299 32.1588L143.669 32.7088L144.747 32.0833L155.1 26.1088C171.831 35.0066 185.554 48.6579 194.538 65.3421L188.488 75.8245L187.82 76.9892L188.327 78.2294C196.822 98.9255 196.795 122.14 188.251 142.817L187.787 143.949L188.488 145.178L194.506 155.596C185.49 172.284 171.738 185.931 154.982 194.819L144.747 188.909L143.518 188.208L142.439 188.661C121.756 197.209 98.5313 197.232 77.8305 188.725L76.6227 188.229L75.4472 188.92L65.5688 194.614C48.7516 185.601 35.0023 171.78 26.0766 154.917L31.706 145.211L32.3423 144.132L31.7384 142.806ZM36.5374 175.784C39.8038 179.471 43.34 182.91 47.1168 186.073C43.2613 182.999 39.7177 179.553 36.5374 175.784V175.784Z" fill="white"/>
<path d="M166.499 52.1529C164.515 50.1578 164.439 47.7529 166.294 45.9088C168.149 44.0647 170.608 44.2264 172.538 46.2431C174.469 48.2598 174.544 50.5568 172.743 52.3902C170.942 54.2235 168.462 54.1372 166.499 52.1529Z" fill="#E6332A"/>
</svg>
