<svg width="1440" height="5" viewBox="0 0 1440 5" fill="none" xmlns="http://www.w3.org/2000/svg">
<path fill-rule="evenodd" clip-rule="evenodd" d="M80 0H81V4H155.294V0H156.294V4H230.588V0H231.588V4H305.882V0H306.882V4H381.177V0H382.177V4H456.471V0H457.471V4H531.765V0H532.765V4H607.059V0H608.059V4H682.353V0H683.353V4H757.647V0H758.647V4H832.941V0H833.941V4H908.235V0H909.235V4H983.53V0H984.53V4H1058.82V0H1059.82V4H1134.12V0H1135.12V4H1209.41V0H1210.41V4H1284.71V0H1285.71V4H1360V0H1361V4H1440V5H0V4H80V0Z" fill="white" fill-opacity="0.3"/>
</svg>
