<?xml version="1.0" encoding="utf-8"?>
<!-- Generator: Adobe Illustrator 21.0.2, SVG Export Plug-In . SVG Version: 6.00 Build 0)  -->
<!DOCTYPE svg PUBLIC "-//W3C//DTD SVG 1.1//EN" "http://www.w3.org/Graphics/SVG/1.1/DTD/svg11.dtd">
<svg version="1.1" id="Layer_1" xmlns="http://www.w3.org/2000/svg" xmlns:xlink="http://www.w3.org/1999/xlink" x="0px" y="0px"
	 viewBox="0 0 600 600" style="enable-background:new 0 0 600 600;" xml:space="preserve">
<style type="text/css">
	.st0{fill:#FFFFFF;}
</style>
<path class="st0" d="M314.7,149.8V307l128.6,80l-21.4,37.9l-150-95.4V149.8H314.7z M138.6,469.1C183.7,516.4,237.5,540,300,540
	s116.3-23.6,161.4-70.9c45-47.2,67.6-103.6,67.6-169.1s-22.5-121.9-67.6-169.1C416.3,83.6,362.5,60,300,60s-116.3,23.6-161.3,70.9
	C93.6,178.1,71,234.5,71,300S93.6,421.9,138.6,469.1 M98.5,88.7C154.3,30.2,221.4,1,300,1s145.7,29.2,201.5,87.7
	s83.7,128.9,83.7,211.2c0,82.4-27.9,152.8-83.7,211.3C445.7,569.8,378.6,599,300,599c-78.5,0-145.7-29.2-201.5-87.7
	S14.8,382.4,14.8,300S42.7,147.2,98.5,88.7"/>
</svg>
