<?xml version="1.0" encoding="utf-8"?>
<!-- Generator: Adobe Illustrator 21.0.2, SVG Export Plug-In . SVG Version: 6.00 Build 0)  -->
<!DOCTYPE svg PUBLIC "-//W3C//DTD SVG 1.1//EN" "http://www.w3.org/Graphics/SVG/1.1/DTD/svg11.dtd">
<svg version="1.1" id="Layer_1" xmlns="http://www.w3.org/2000/svg" xmlns:xlink="http://www.w3.org/1999/xlink" x="0px" y="0px"
	 viewBox="0 0 600 600" style="enable-background:new 0 0 600 600;" xml:space="preserve">
<style type="text/css">
	.st0{fill:#FFFFFF;}
</style>
<path class="st0" d="M126.6,259.8c48.3,95.9,119.1,168.6,212.6,218.1l70.9-72.7c10.1-10.3,21.1-12.9,33.2-7.7
	c36.2,12.4,74.4,18.6,114.6,18.6c9,0,16.6,3.1,22.6,9.3c6,6.2,9.1,13.9,9.1,23.2v116c0,9.3-3,17-9.1,23.2c-6,6.2-13.6,9.3-22.6,9.3
	c-150.8,0-279.7-54.9-386.7-164.7C64.1,322.4,10.5,190.2,10.5,35.5c0-9.3,3-17,9.1-23.2S33.2,3,42.2,3h113.1c9,0,16.6,3.1,22.6,9.3
	c6,6.2,9.1,13.9,9.1,23.2c0,41.2,6,80.4,18.1,117.6c4,13.4,1.5,24.8-7.6,34L126.6,259.8z"/>
</svg>
