<svg width="93" height="31" viewBox="0 0 93 31" fill="none" xmlns="http://www.w3.org/2000/svg">
<path d="M24.3811 30.1221H0.439703V26.3594C0.419216 24.8486 0.910347 23.3752 1.83326 22.1788C2.7465 20.9518 3.94139 19.9624 5.31717 19.2941C6.51563 18.6809 8.02067 17.9841 9.81836 17.2037C11.5046 16.507 13.0096 15.859 14.3474 15.3433C15.647 14.8551 16.8327 14.1058 17.8313 13.1415C18.2657 12.7404 18.6134 12.2548 18.853 11.7143C19.0927 11.1739 19.2192 10.5902 19.2249 9.99903C19.2249 6.97036 17.0835 5.4537 12.8006 5.44905C8.5177 5.44441 6.36698 7.17939 6.3484 10.654V11.6365H1.2619V10.654C1.2619 7.5603 2.27688 5.17963 4.30684 3.512C6.33679 1.84437 9.16107 1.0152 12.7797 1.02449C16.3797 1.02449 19.2017 1.80489 21.2456 3.36567C22.2511 4.14442 23.0546 5.15363 23.5882 6.30812C24.1218 7.46262 24.3698 8.72853 24.3114 9.99903C24.3349 11.5779 23.8648 13.1248 22.9666 14.4236C22.0909 15.712 20.9357 16.7861 19.5872 17.5661C18.1521 18.3898 16.6753 19.1387 15.1627 19.8097C13.6507 20.5065 12.1805 21.0778 10.7521 21.6074C9.53714 22.0405 8.39526 22.656 7.3657 23.433C6.96847 23.6791 6.63512 24.0157 6.39292 24.4154C6.15071 24.815 6.00653 25.2663 5.97214 25.7323H24.3532L24.3811 30.1221Z" fill="white"/>
<path d="M29.4466 29.8017C29.1816 29.5564 28.9742 29.2555 28.8393 28.9206C28.7044 28.5857 28.6453 28.225 28.6662 27.8646C28.6504 27.5037 28.7118 27.1435 28.8464 26.8083C28.9809 26.473 29.1856 26.1703 29.4466 25.9206C30.0293 25.4306 30.7769 25.1814 31.537 25.2238C32.2974 25.1785 33.0461 25.4281 33.6273 25.9206C33.8883 26.1703 34.093 26.473 34.2276 26.8083C34.3622 27.1435 34.4236 27.5037 34.4077 27.8646C34.4287 28.225 34.3696 28.5857 34.2347 28.9206C34.0997 29.2555 33.8923 29.5564 33.6273 29.8017C33.0461 30.2941 32.2974 30.5437 31.537 30.4984C30.7769 30.5408 30.0293 30.2916 29.4466 29.8017Z" fill="white"/>
<path d="M38.7208 21.8723V20.4161H43.9606V21.8723C43.9527 22.5075 44.1186 23.1328 44.4403 23.6806C44.7621 24.2283 45.2275 24.6776 45.7862 24.98C47.3721 25.7122 49.0981 26.0914 50.8448 26.0914C52.5916 26.0914 54.3176 25.7122 55.9035 24.98C56.4601 24.6723 56.922 24.2181 57.2389 23.6666C57.5558 23.1151 57.7156 22.4873 57.7011 21.8514C57.7271 21.2203 57.587 20.5934 57.2947 20.0334C57.0025 19.4734 56.5684 18.9999 56.0358 18.6602C54.9303 17.9216 53.33 17.5523 51.235 17.5523H47.7511V13.288H51.1932C54.9976 13.288 56.8999 11.978 56.8999 9.35815C56.9019 8.78079 56.7532 8.21289 56.4685 7.71062C56.1837 7.20835 55.7728 6.78912 55.2763 6.49438C53.8649 5.69062 52.25 5.31533 50.6288 5.41437C49.006 5.32626 47.3934 5.72152 45.9952 6.55012C45.464 6.87788 45.028 7.33931 44.7309 7.8883C44.4338 8.4373 44.2859 9.05463 44.3021 9.67866V10.4242H39.0623V9.64383C39.027 8.42534 39.2845 7.21616 39.8131 6.11773C40.3417 5.0193 41.126 4.06366 42.1002 3.33099C44.1209 1.7702 46.9638 0.989807 50.6288 0.989807C54.2103 0.989807 57.0276 1.73769 59.0808 3.23344C60.0252 3.85555 60.7999 4.70293 61.3351 5.69917C61.8704 6.6954 62.1492 7.80918 62.1466 8.94008C62.1511 9.80148 61.9976 10.6564 61.6937 11.4624C61.456 12.1505 61.0707 12.7783 60.5649 13.3019C59.8904 14.0397 59.0427 14.5977 58.0983 14.9254L57.6384 15.0857V15.3505C58.2855 15.5033 58.9106 15.7374 59.4988 16.0472C60.0968 16.3509 60.6501 16.7354 61.1432 17.19C61.7288 17.768 62.1806 18.4672 62.4671 19.2385C62.8292 20.1544 63.0114 21.1314 63.0037 22.1162C63.0429 23.3464 62.7585 24.5654 62.1789 25.6512C61.5994 26.737 60.7449 27.6516 59.7009 28.3036C57.4712 29.7668 54.5285 30.5008 50.8727 30.5054C47.0822 30.5054 44.1116 29.7297 41.9609 28.1782C40.9348 27.4837 40.1002 26.5419 39.5339 25.4399C38.9677 24.3378 38.6881 23.1109 38.7208 21.8723Z" fill="white"/>
<path d="M68.6127 22.0395H73.9361C73.9361 22.0395 73.9361 22.2137 74.0336 22.4715C74.1842 22.8341 74.3685 23.1817 74.5841 23.5097C74.8601 23.9465 75.1954 24.3429 75.5805 24.6873C76.1109 25.1383 76.7272 25.4773 77.3921 25.6837C78.2059 25.962 79.0614 26.0987 79.9214 26.0878C80.963 26.1301 81.9991 25.9188 82.941 25.4721C83.8828 25.0255 84.7021 24.3569 85.3284 23.5237C86.6874 21.6256 87.3718 19.3272 87.2725 16.9948H87.1331C86.8352 17.4195 86.476 17.7976 86.067 18.1167C85.6336 18.5031 85.1481 18.8268 84.6247 19.0782C83.8979 19.4374 83.1272 19.6997 82.3323 19.8586C81.3648 20.0748 80.3762 20.1823 79.3849 20.1791C76.0682 20.1791 73.3717 19.2733 71.2744 17.4547C70.2728 16.6018 69.4706 15.5396 68.9241 14.343C68.3776 13.1463 68.1002 11.8444 68.1115 10.5289C68.1228 9.21347 68.4225 7.91649 68.9894 6.72942C69.5564 5.54234 70.3768 4.49406 71.3928 3.65846C73.5668 1.88864 76.4631 1.00141 80.0817 0.996765C84.1788 0.996765 87.2887 2.23935 89.4116 4.72454C91.5345 7.20972 92.5959 10.6402 92.5959 15.016V15.9915C92.5959 20.1722 91.495 23.6375 89.2931 26.3874C87.0913 29.1374 83.9674 30.5124 79.9214 30.5124C78.1381 30.5407 76.3654 30.2334 74.6956 29.6066C73.3487 29.1322 72.13 28.3523 71.135 27.3281C69.4488 25.5234 68.6127 23.7536 68.6127 22.0395ZM75.2948 14.4098C76.7076 15.3369 78.3606 15.8308 80.0503 15.8308C81.7401 15.8308 83.3931 15.3369 84.8059 14.4098C85.4069 13.983 85.8932 13.4142 86.2214 12.7542C86.5496 12.0941 86.7096 11.3631 86.6872 10.6263C86.7082 9.88891 86.5498 9.15748 86.2258 8.49481C85.9017 7.83215 85.4216 7.25806 84.8268 6.82185C83.4264 5.84643 81.745 5.35692 80.0399 5.42829C78.3406 5.35107 76.6639 5.84133 75.2739 6.82185C74.6866 7.26478 74.2102 7.83798 73.8821 8.49634C73.554 9.15471 73.3833 9.88024 73.3833 10.6158C73.3833 11.3514 73.554 12.0769 73.8821 12.7353C74.2102 13.3937 74.6866 13.9669 75.2739 14.4098H75.2948Z" fill="white"/>
</svg>
