<svg width="26" height="25" viewBox="0 0 26 25" fill="none" xmlns="http://www.w3.org/2000/svg">
<path d="M22.5516 23.9483L22.5516 23.9483L22.5542 23.9509C22.8079 24.194 23.1467 24.3282 23.4981 24.3246C23.8495 24.321 24.1856 24.18 24.4343 23.9317C24.6829 23.6833 24.8245 23.3476 24.8285 22.9962C24.8326 22.6447 24.6989 22.3057 24.4561 22.0517L24.4561 22.0516L24.4533 22.0489L20.1906 17.7861C21.595 15.9774 22.4379 13.7104 22.4379 11.251C22.4379 5.36908 17.6446 0.578235 11.7629 0.578235C5.88104 0.578235 1.09014 5.36913 1.09014 11.251C1.09014 17.1326 5.88084 21.9329 11.7629 21.9329C14.2194 21.9329 16.4829 21.0911 18.2888 19.6878L22.5516 23.9483ZM11.7629 3.2616C16.1904 3.2616 19.7522 6.82349 19.7522 11.251C19.7522 15.6787 16.1901 19.2495 11.7629 19.2495C7.33562 19.2495 3.77347 15.6787 3.77347 11.251C3.77347 6.82349 7.33536 3.2616 11.7629 3.2616Z" fill="white" stroke="white" stroke-width="0.35"/>
</svg>
